<svg xmlns="http://www.w3.org/2000/svg" width="414.11" height="392.15" viewBox="0 0 414.11 392.15"><defs><style>.cls-1{fill:#fff;}</style></defs><title>150_prize</title><g id="Layer_2" data-name="Layer 2"><g id="Layer_1-2" data-name="Layer 1"><path class="cls-1" d="M326.75,45.19c0-25-20-45-44.24-45-18.4,0-60.8,27.52-77.76,52.24C187.23,27.67,145,1,127.31,1,103.15,1,83.07,21,83.07,46A45.29,45.29,0,0,0,94.35,76H8.91v107.6H32.27V392.15H377.63V183.67h23.28V76.07H314.67A45.26,45.26,0,0,0,326.75,45.19ZM282.51,16.87c15,0,27.52,12.48,27.52,29.2,0,14.08-9.84,26.16-22.56,28.72H219.79c-4.32-1.28-5.68-2.8-5.68-3.68C214.11,56.87,264.11,16.87,282.51,16.87ZM238.19,92.71v73.72H171.47V92.71ZM127.31,16.87c17.52,0,68.4,40,68.4,54.24,0,1.28-3,2.72-5.12,3.68H122.43c-12.72-2.56-22.56-14.64-22.56-28.72C99.79,30.15,112.35,16.87,127.31,16.87Zm-101.68,151v-75H154.91v75H25.63Zm335.2,207.6H48.91V183.67H360.83ZM384.19,92.79v75H254.91v-75Z"/><polygon class="cls-1" points="92.01 228.82 92.01 343.65 106.39 343.65 106.39 213.71 95.7 213.71 64.18 224.59 67.69 236.38 92.01 228.82"/><path class="cls-1" d="M171.64,332.59c-13.09,0-25.44-6.82-36.68-17.69l-9.59,10.5C137,337,153,345.86,171.45,345.86c26.91,0,46.08-17.14,46.08-42.39v-.37c0-24.51-19.54-39.44-44.6-39.44-10.69,0-17.88,2.4-25.44,5.71l2.77-41.28h61.56V214.63H137.54l-3.69,62.85,9.77,6.45c7.56-4.05,16.22-7.37,27.09-7.37,18.8,0,32.07,11.06,32.07,27.09V304C202.78,320.43,190.07,332.59,171.64,332.59Z"/><path class="cls-1" d="M284.81,345.86c33.17,0,54.55-30.59,54.55-66.72v-.37c0-36.12-21-66.35-54.18-66.35s-54.74,30.6-54.74,66.72v.37C230.44,315.63,251.45,345.86,284.81,345.86Zm-39.26-67.09c0-28.38,15.11-53.08,39.26-53.08,24,0,39.44,25.25,39.44,53.45v.37c0,28.2-14.93,53.08-39.07,53.08s-39.63-25.25-39.63-53.45Z"/><path class="cls-1" d="M412.27,1.84a6.3,6.3,0,0,0-8.89,0l-54,54a1.33,1.33,0,0,0,1.75,2l60.51-46.57A6.28,6.28,0,0,0,412.27,1.84Z"/><path class="cls-1" d="M64.84,57.57a1.34,1.34,0,0,0-.12-1.74l-54-54a6.28,6.28,0,1,0-8.27,9.42L63,57.83A1.34,1.34,0,0,0,64.84,57.57Z"/></g></g></svg>