<svg xmlns="http://www.w3.org/2000/svg" width="398.37" height="391.6" viewBox="0 0 398.37 391.6"><defs><style>.cls-1{fill:#fff;}</style></defs><title>calendar_icon1</title><g id="Layer_2" data-name="Layer 2"><g id="Layer_1-2" data-name="Layer 1"><path class="cls-1" d="M178.81,17.86a18.15,18.15,0,0,1,14.53,7.19,18.52,18.52,0,0,1,3,16.25c-2.31,8.4-11.09,12.28-18.53,13.1a8.93,8.93,0,0,0,1,17.8,36.1,36.1,0,0,0,0-72.2,8.93,8.93,0,0,0,0,17.86Z"/><path class="cls-1" d="M219.59,17.86a18.11,18.11,0,0,1,14.55,7.25,18.45,18.45,0,0,1,3,16.28c-2,7.27-9.16,12.36-18.13,13a8.93,8.93,0,0,0,.62,17.83,36.1,36.1,0,0,0,0-72.2,8.93,8.93,0,0,0,0,17.86Z"/><path class="cls-1" d="M389.64,27.18h-94.3A36.28,36.28,0,0,0,260.34,0a8.93,8.93,0,0,0-.75,17.83c9.09.76,16.27,5.85,18.28,13a18.47,18.47,0,0,1-2.93,16.29,18.19,18.19,0,0,1-14.6,7.27,8.93,8.93,0,0,0,0,17.85,36.27,36.27,0,0,0,35-27.17h85.21v63.71H17.85V45H131.23a8.93,8.93,0,1,0,0-17.85h-9A18.36,18.36,0,0,1,143,18.52,18,18,0,0,1,155.6,31a18.53,18.53,0,0,1-3.08,16.17A18.19,18.19,0,0,1,138,54.35a8.93,8.93,0,0,0,0,17.85,36.11,36.11,0,1,0-19.5-66.46,36.38,36.38,0,0,0-15.47,21.44H10.3A10.31,10.31,0,0,0,0,37.48V385.09a6.52,6.52,0,0,0,6.51,6.51H386.07a12.31,12.31,0,0,0,12.3-12.29V35.9A8.74,8.74,0,0,0,389.64,27.18Zm-9.09,99.37v247.2H17.85V126.55Z"/><path class="cls-1" d="M55,174.67H96.91a8.85,8.85,0,0,0,0-17.7H55a8.85,8.85,0,0,0,0,17.7Z"/><path class="cls-1" d="M136.23,174.67H178.1a8.85,8.85,0,0,0,0-17.7H136.23a8.85,8.85,0,0,0,0,17.7Z"/><path class="cls-1" d="M217.42,174.67h41.87a8.85,8.85,0,0,0,0-17.7H217.42a8.85,8.85,0,0,0,0,17.7Z"/><path class="cls-1" d="M298.61,174.67h41.87a8.85,8.85,0,0,0,0-17.7H298.61a8.85,8.85,0,0,0,0,17.7Z"/><path class="cls-1" d="M55,228.82H96.91a8.85,8.85,0,0,0,0-17.7H55a8.85,8.85,0,0,0,0,17.7Z"/><path class="cls-1" d="M136.23,228.82H178.1a8.85,8.85,0,0,0,0-17.7H136.23a8.85,8.85,0,0,0,0,17.7Z"/><path class="cls-1" d="M217.42,228.82h41.87a8.85,8.85,0,0,0,0-17.7H217.42a8.85,8.85,0,0,0,0,17.7Z"/><path class="cls-1" d="M298.61,228.82h41.87a8.85,8.85,0,0,0,0-17.7H298.61a8.85,8.85,0,0,0,0,17.7Z"/><path class="cls-1" d="M55,283H96.91a8.85,8.85,0,0,0,0-17.7H55A8.85,8.85,0,1,0,55,283Z"/><path class="cls-1" d="M55,334.29H96.91a8.85,8.85,0,0,0,0-17.7H55a8.85,8.85,0,1,0,0,17.7Z"/><path class="cls-1" d="M136.23,283H178.1a8.85,8.85,0,0,0,0-17.7H136.23a8.85,8.85,0,1,0,0,17.7Z"/><path class="cls-1" d="M217.42,283h41.87a8.85,8.85,0,0,0,0-17.7H217.42a8.85,8.85,0,1,0,0,17.7Z"/><path class="cls-1" d="M298.61,283h41.87a8.85,8.85,0,0,0,0-17.7H298.61a8.85,8.85,0,0,0,0,17.7Z"/></g></g></svg>