<svg xmlns="http://www.w3.org/2000/svg" width="77.03" height="77.03" viewBox="0 0 77.03 77.03"><defs><style>.cls-1{fill:#fff;}.cls-2{fill:#ee3f87;}</style></defs><title>calendar_icon</title><g id="Layer_2" data-name="Layer 2"><g id="Layer_1-2" data-name="Layer 1"><path class="cls-1" d="M36.53,21.15a1.79,1.79,0,0,1,1.42.7,1.83,1.83,0,0,1,.29,1.59,2,2,0,0,1-1.81,1.28.87.87,0,0,0,.1,1.73,3.52,3.52,0,0,0,0-7,.87.87,0,0,0,0,1.74Z"/><path class="cls-1" d="M40.51,21.15a1.77,1.77,0,0,1,1.42.71,1.79,1.79,0,0,1,.29,1.59,1.88,1.88,0,0,1-1.77,1.26.87.87,0,0,0,.06,1.74,3.52,3.52,0,1,0,0-7,.87.87,0,1,0,0,1.74Z"/><path class="cls-1" d="M57.11,22.06H47.9a3.52,3.52,0,0,0-3.41-2.65.87.87,0,0,0-.08,1.74,1.93,1.93,0,0,1,1.79,1.26A1.8,1.8,0,0,1,45.91,24a1.77,1.77,0,0,1-1.42.71.87.87,0,0,0,0,1.74A3.52,3.52,0,0,0,47.9,23.8h8.32V30H20.82V23.8H31.88a.87.87,0,1,0,0-1.74H31a1.81,1.81,0,0,1,2-.85,1.74,1.74,0,0,1,1.22,1.23A1.79,1.79,0,0,1,34,24a1.74,1.74,0,0,1-1.41.7.87.87,0,0,0,0,1.74,3.49,3.49,0,0,0,2.75-1.32,3.52,3.52,0,1,0-6.17-3.07h-9a1,1,0,0,0-1,1V57a.64.64,0,0,0,.63.64H56.76a1.2,1.2,0,0,0,1.2-1.2V22.91A.85.85,0,0,0,57.11,22.06Zm-.89,9.7V55.89H20.82V31.76Z"/><path class="cls-1" d="M24.45,36.45h4.08a.86.86,0,1,0,0-1.72H24.45a.86.86,0,1,0,0,1.72Z"/><path class="cls-1" d="M32.37,36.45h4.09a.86.86,0,1,0,0-1.72H32.37a.86.86,0,1,0,0,1.72Z"/><path class="cls-1" d="M40.3,36.45h4.08a.86.86,0,1,0,0-1.72H40.3a.86.86,0,1,0,0,1.72Z"/><path class="cls-1" d="M48.22,36.45h4.09a.86.86,0,1,0,0-1.72H48.22a.86.86,0,0,0,0,1.72Z"/><path class="cls-1" d="M24.45,41.74h4.08a.87.87,0,1,0,0-1.73H24.45a.87.87,0,1,0,0,1.73Z"/><path class="cls-1" d="M32.37,41.74h4.09a.87.87,0,0,0,0-1.73H32.37a.87.87,0,0,0,0,1.73Z"/><path class="cls-1" d="M40.3,41.74h4.08a.87.87,0,1,0,0-1.73H40.3a.87.87,0,1,0,0,1.73Z"/><path class="cls-1" d="M48.22,41.74h4.09a.87.87,0,0,0,0-1.73H48.22a.87.87,0,0,0,0,1.73Z"/><path class="cls-1" d="M24.45,47h4.08a.87.87,0,1,0,0-1.73H24.45a.87.87,0,1,0,0,1.73Z"/><path class="cls-1" d="M24.45,52h4.08a.86.86,0,1,0,0-1.72H24.45a.86.86,0,1,0,0,1.72Z"/><path class="cls-1" d="M32.37,47h4.09a.87.87,0,0,0,0-1.73H32.37a.87.87,0,0,0,0,1.73Z"/><path class="cls-1" d="M40.3,47h4.08a.87.87,0,1,0,0-1.73H40.3a.87.87,0,1,0,0,1.73Z"/><path class="cls-1" d="M48.22,47h4.09a.87.87,0,0,0,0-1.73H48.22a.87.87,0,0,0,0,1.73Z"/><path class="cls-2" d="M38.52,77A38.52,38.52,0,1,1,77,38.52,38.56,38.56,0,0,1,38.52,77Zm0-75A36.52,36.52,0,1,0,75,38.52,36.56,36.56,0,0,0,38.52,2Z"/></g></g></svg>