<svg xmlns="http://www.w3.org/2000/svg" width="102.3" height="60.21" viewBox="0 0 102.3 60.21"><title>icon1</title><g id="Layer_2" data-name="Layer 2"><g id="Layer_1-2" data-name="Layer 1"><path d="M16.71,35.08l-3.6-9h7.5a2.42,2.42,0,0,0,.48-.06,27.27,27.27,0,0,1,.71-2.69,1.61,1.61,0,0,0-1.19-.46H11.82l-1.76-4.42h6.73a1.5,1.5,0,0,0,1.61-1.6,1.51,1.51,0,0,0-1.61-1.61h-8L7,10.84h7.88a1.5,1.5,0,0,0,1.6-1.61,1.5,1.5,0,0,0-1.6-1.6H5.72L4,3.21H29.35L32.79,7.9c.69-.53,1.41-1,2.15-1.49L31.64.87A2.31,2.31,0,0,0,30.14,0H1.54A2,2,0,0,0,.27.63,1.55,1.55,0,0,0,.1,2.07L3,9.41a1.58,1.58,0,0,0,.36.92l0,0L6.06,17.1a1.8,1.8,0,0,0,.35.87l2.7,6.83a1.84,1.84,0,0,0,.3.74l4.23,10.65c2,4.94,7.46,10.34,12,13.79a30.78,30.78,0,0,1-3.31-6.43A22.87,22.87,0,0,1,16.71,35.08Z" style="fill:#fff"/><path d="M30.6,23.3a1.4,1.4,0,0,0,.63.16,1.38,1.38,0,0,0,1.22-.74,20.81,20.81,0,0,1,2.9-4.24,1.37,1.37,0,0,0-2.06-1.81A24.23,24.23,0,0,0,30,21.45a1.37,1.37,0,0,0,.58,1.85Z" style="fill:#fff"/><path d="M29.58,26.09a1.21,1.21,0,0,0,.46.08,1.33,1.33,0,0,0,1.26-.84l.06-.09v0a1.39,1.39,0,0,0-.85-1.7,1.48,1.48,0,0,0-.46-.08,1.39,1.39,0,0,0-1.3.93A1.36,1.36,0,0,0,29.58,26.09Z" style="fill:#fff"/><path d="M77.85,24.65l-.29-.93L77.32,23l-.22-.61s-.21-.53-.29-.71l-.23-.53-.23-.5A27.76,27.76,0,0,0,52.3,4.8h-1A27.79,27.79,0,0,0,36.86,8.83a28.18,28.18,0,0,0-4.67,3.57l-.69.69a27.51,27.51,0,0,0-3.07,3.74l-.29.43c-.24.35-.46.72-.68,1.09l-.27.46-.35.63-.41.8-.3.64-.37.83-.27.67a27.32,27.32,0,0,0-.78,18l.15.5.15.45.23.66.23.62s.21.52.29.7l.23.54.23.5A27.73,27.73,0,0,0,50.7,60.2h.14v-.3h0l.15.3h.27a27.79,27.79,0,0,0,19.11-7.62l.33-.33.36-.36a27.79,27.79,0,0,0,3.36-4.16c.24-.36.47-.73.69-1.1l.37-.66.29-.52s.26-.5.36-.71.21-.43.31-.64l.36-.83c.09-.2.17-.4.28-.67A27.39,27.39,0,0,0,77.85,24.65Zm-1.68,10-1.25-2.17,1.24-2.15A24.93,24.93,0,0,1,76.17,34.66Zm-2.51,8.9c-.07.15-.15.3-.22.44l-.24.44L73,44.9l-.31.52a24.34,24.34,0,0,1-3.77,4.8H63.1L58.38,42l4.72-8.17h9.44l2.89,5A26.13,26.13,0,0,1,73.94,43C73.85,43.18,73.75,43.37,73.66,43.56Zm-8,9.4a24.07,24.07,0,0,1-3.78,2.18L63.1,53Zm-14.68,4.5v.3h0l-.16-.3a24.91,24.91,0,0,1-6.06-.87l-2.88-5,4.72-8.17H56l4.72,8.17-2.87,5a24.91,24.91,0,0,1-6.59.88ZM39.46,53l1.24,2.15-.49-.24A25,25,0,0,1,37,53ZM36.94,12a25.44,25.44,0,0,1,3.78-2.19L39.46,12ZM63.1,12,61.86,9.88l.49.24A24.46,24.46,0,0,1,65.58,12ZM74.24,22.69l.28-.12h0l-.21.29.15.37.28-.11-.22.25c.06.16.13.33.19.5l.28-.11-.23.25.13.37.19.58.16.51.18.67-2.88,5H63.1L58.38,23l4.72-8.18h5.77A25,25,0,0,1,73.7,21.5l.24.51S74.18,22.54,74.24,22.69Zm-27.68,18-4.72-8.18,4.72-8.17H56l4.72,8.17L56,40.67ZM56,21.57H46.56L41.84,13.4l2.88-5a24.85,24.85,0,0,1,6.58-.89h.48a24.77,24.77,0,0,1,6.06.87l2.88,5ZM30,33.87h9.44L44.18,42l-4.72,8.18H33.7a25,25,0,0,1-6.55-11.38Zm-3-8.39.32,0,.14-.48.09-.28.32-.91a24.69,24.69,0,0,1,1-2.36l.23-.45-.24-.19h0l.3.08.43-.78.3-.51a24.4,24.4,0,0,1,3.77-4.81h5.77L44.18,23l-4.72,8.17H30l-2.88-5,.15-.57L27,25.48Zm.64,7-1.23,2.14a24.47,24.47,0,0,1,0-4.28Z" style="fill:#fff"/><path d="M100.76,0H72.16a2.31,2.31,0,0,0-1.47.82L67.46,6.24A25.25,25.25,0,0,1,69.65,7.7L73,3.21H98.34L96.57,7.63H87.41a1.5,1.5,0,0,0-1.61,1.6,1.51,1.51,0,0,0,1.61,1.61h7.88l-1.77,4.41h-8a1.5,1.5,0,0,0-1.6,1.61,1.5,1.5,0,0,0,1.6,1.6h6.74l-1.77,4.42H81.69a1.74,1.74,0,0,0-.88.22,29.73,29.73,0,0,1,.81,3h7.57l-3.6,9a23,23,0,0,1-5,7.91,30.63,30.63,0,0,1-3.13,6.4c4.37-3.47,9.34-8.54,11.23-13.2l4.26-10.71a1.84,1.84,0,0,0,.28-.75l2.73-6.83a1.82,1.82,0,0,0,.33-.87l2.64-6.67,0,0a1.83,1.83,0,0,0,.38-1l2.87-7.24a1.59,1.59,0,0,0-.12-1.41A2,2,0,0,0,100.76,0Z" style="fill:#fff"/></g></g></svg>