<svg xmlns="http://www.w3.org/2000/svg" width="79.84" height="87.69" viewBox="0 0 79.84 87.69"><title>icon2</title><g id="Layer_2" data-name="Layer 2"><g id="Layer_1-2" data-name="Layer 1"><path d="M78.71,38.59H71.19l.1-.54A86.27,86.27,0,0,0,73,21.14,1.34,1.34,0,0,0,72.28,20h0L40.62.22A1.41,1.41,0,0,0,39.93,0h0a1.41,1.41,0,0,0-.69.22L7.61,20H7.56a1.34,1.34,0,0,0-.68,1.15A86.27,86.27,0,0,0,8.55,38.05l.1.54H1.13a1.14,1.14,0,0,0,0,2.27h8l.08.35c.24,1.06.49,2.11.76,3.16l.15.56H3.67a1.14,1.14,0,0,0,0,2.27h7.08l.09.32c.32,1.06.65,2.11,1,3.16l.2.59H6.21a1.14,1.14,0,1,0,0,2.27h6.64l.1.29c4.48,12,11.23,17.76,20.05,27.1l5.91,6.3a1.38,1.38,0,0,0,1,.46h0a1.38,1.38,0,0,0,1-.46l5.91-6.3c8.83-9.34,15.57-15.14,20-27.1l.11-.29h6.64a1.14,1.14,0,0,0,0-2.27H67.8l.2-.59c.36-1,.69-2.1,1-3.16l.1-.32h7.07a1.14,1.14,0,1,0,0-2.27H69.73l.15-.56c.27-1,.52-2.1.76-3.16l.08-.35h8a1.14,1.14,0,0,0,0-2.27ZM69.92,22.33A85.91,85.91,0,0,1,64.5,51.61l0,.06,0,0a1,1,0,0,0-.17.48v0l0,0C59.93,64.05,53.36,69.71,44.74,79l-4.67,5.1-.14-.16h0l-.14.16L35.1,79C26.48,69.71,19.91,64.05,15.59,52.3l0,0v0a1.15,1.15,0,0,0-.18-.48l0,0,0-.06A85.91,85.91,0,0,1,9.92,22.33v-.25l30-18.8,30,18.8Z" style="fill:#fff"/><path d="M40.31,71.13,40,71.5l0,0v0h0v0l0,0-.33-.37c-.72-.81-1.42-1.61-2.11-2.41A24.56,24.56,0,0,1,33,67.84c1.79,2.14,3.68,4.28,5.72,6.45l.19.19a1.28,1.28,0,0,0,1,.44H40a1.26,1.26,0,0,0,1-.44l.19-.19c2-2.16,3.91-4.29,5.69-6.41a25,25,0,0,1-4.45.85Z" style="fill:#fff"/><path d="M39.9,10.94a1.32,1.32,0,0,0-.73.21L16.66,25.34a1.52,1.52,0,0,0-.75,1.31,71.62,71.62,0,0,0,.87,8.19A24.32,24.32,0,0,1,19,30.44c-.09-.92-.18-1.84-.24-2.8v-.26L39.88,14l0,0h0l0,0,21.1,13.36,0,.26c-.06.91-.14,1.79-.23,2.67a24.75,24.75,0,0,1,2.28,4.36,71.5,71.5,0,0,0,.83-8,1.53,1.53,0,0,0-.74-1.31L40.67,11.15a1.3,1.3,0,0,0-.73-.21h0Z" style="fill:#fff"/><path d="M23.6,36.52a1,1,0,0,0,.49.12,1.09,1.09,0,0,0,1-.58,16.76,16.76,0,0,1,2.29-3.36,1.08,1.08,0,0,0-.1-1.53,1.08,1.08,0,0,0-1.53.1,19.25,19.25,0,0,0-2.59,3.79,1.08,1.08,0,0,0,.47,1.46Z" style="fill:#fff"/><path d="M22.79,38.73a1.09,1.09,0,0,0,.36.06,1.05,1.05,0,0,0,1-.66l0-.08v0a1.08,1.08,0,0,0-.67-1.34,1.13,1.13,0,0,0-.36-.06,1.1,1.1,0,0,0-1,.73A1.08,1.08,0,0,0,22.79,38.73Z" style="fill:#fff"/><path d="M60.78,36.85l-.19-.54-.18-.48s-.16-.42-.23-.56L60,34.84l-.18-.39a21.93,21.93,0,0,0-19-12.58H40a22,22,0,0,0-11.44,3.2,22.4,22.4,0,0,0-3.7,2.83l-.54.54a21.56,21.56,0,0,0-2.44,3l-.22.34c-.19.29-.37.57-.54.87L20.9,33l-.28.5s-.24.47-.33.63l-.24.51-.29.66c-.07.16-.13.31-.21.53A21.61,21.61,0,0,0,18.93,50l.12.4.12.35.18.53.18.48.23.56.18.43.18.39A22,22,0,0,0,39.51,65.74h.11V65.5h0l.12.24H40a22,22,0,0,0,15.13-6l.27-.26.29-.28a22.53,22.53,0,0,0,2.65-3.3c.19-.29.37-.58.55-.87l.29-.52.23-.42s.2-.39.29-.55l.24-.52.29-.65c.07-.16.13-.31.21-.53A21.62,21.62,0,0,0,61,37.59Zm-1.11,8.66-1-1.71,1-1.71A19.53,19.53,0,0,1,59.67,45.51Zm-2,7.05-.18.35-.18.35-.2.36-.24.41a20.1,20.1,0,0,1-3,3.81H49.33l-3.74-6.48,3.74-6.48h7.48l2.28,4a19.33,19.33,0,0,1-1.18,3.26C57.84,52.26,57.76,52.41,57.69,52.56ZM51.32,60a18.85,18.85,0,0,1-3,1.72l1-1.72ZM39.7,63.57v.24h0l-.12-.24a19.87,19.87,0,0,1-4.8-.69l-2.29-4,3.74-6.47h7.48l3.74,6.47-2.28,3.95a20,20,0,0,1-5.22.7ZM30.61,60l1,1.69-.38-.18A21.22,21.22,0,0,1,28.65,60Zm-2-32.42a19.71,19.71,0,0,1,3-1.73l-1,1.73Zm20.71,0-1-1.7.38.19a20.47,20.47,0,0,1,2.56,1.51ZM58.15,36l.22-.1h0l-.16.23.12.29.22-.08-.18.19.15.4.22-.09-.18.2.1.29.16.46.12.41.15.52-2.28,4H49.33l-3.74-6.47,3.74-6.48H53.9a19.89,19.89,0,0,1,3.82,5.33l.19.41ZM36.23,50.27,32.49,43.8l3.74-6.48h7.48l3.74,6.48-3.74,6.47Zm7.48-15.12H36.23l-3.74-6.47,2.28-3.95A19.6,19.6,0,0,1,40,24h.38a19.86,19.86,0,0,1,4.79.69l2.29,4ZM23.13,44.88h7.48l3.74,6.48-3.74,6.48H26.05a19.8,19.8,0,0,1-5.19-9Zm-2.38-6.63.25,0,.12-.38.07-.22.25-.72A19.52,19.52,0,0,1,22.25,35l.18-.36-.19-.15h0l.24.06.33-.61.24-.41a20.1,20.1,0,0,1,3-3.81h4.57l3.74,6.48-3.74,6.47H23.13l-2.28-4c0-.15.08-.3.13-.45l-.23-.06Zm.5,5.55-1,1.69a19.19,19.19,0,0,1,0-3.39Z" style="fill:#fff"/></g></g></svg>