<svg xmlns="http://www.w3.org/2000/svg" width="91.48" height="62.31" viewBox="0 0 91.48 62.31"><title>icon3</title><g id="Layer_2" data-name="Layer 2"><g id="Layer_1-2" data-name="Layer 1"><path d="M24.31,9.64,26.57,0H0L.6,1.56C.72,1.89,3.76,9.64,10,9.64ZM3.5,2.3H23.67l-1.19,5H10C6.8,7.34,4.58,4.25,3.5,2.3Z" style="fill:#fff"/><path d="M64.92,0l2.25,9.64H81.5c6.22,0,9.26-7.75,9.38-8.08L91.48,0ZM81.5,7.34H69l-1.18-5H88C86.9,4.25,84.69,7.34,81.5,7.34Z" style="fill:#fff"/><path d="M70.45,14.13h9.82c-1.35,1.8-3.75,4.45-6.57,4.95.37.69.71,1.4,1,2.12,5.07-1.33,8.54-7.38,8.7-7.66l1-1.71h-16A29.66,29.66,0,0,1,70.45,14.13Z" style="fill:#fff"/><path d="M29.05,7.76l.68-2.82L31.45,6.3c.75-.41,1.51-.78,2.29-1.12L28.34.91,26.15,10A32.61,32.61,0,0,1,29.05,7.76Z" style="fill:#fff"/><path d="M18.86,19.1l-.64,0c-3-.28-5.59-3.11-7-5h10.9c.62-.78,1.29-1.53,2-2.25L24,11.83H7.1l1,1.71c.17.3,4.09,7.14,9.7,7.85C18.1,20.61,18.46,19.84,18.86,19.1Z" style="fill:#fff"/><path d="M61.75,4.94l.48,2a30.65,30.65,0,0,1,2.83,1.93l-1.92-8-5,4c.8.33,1.58.7,2.34,1.09Z" style="fill:#fff"/><path d="M25.54,24.13a1.42,1.42,0,0,0,.63.15,1.36,1.36,0,0,0,1.22-.74,21.44,21.44,0,0,1,2.9-4.23,1.38,1.38,0,0,0-.13-1.94,1.36,1.36,0,0,0-1.93.13A23.66,23.66,0,0,0,25,22.28a1.34,1.34,0,0,0-.09,1A1.38,1.38,0,0,0,25.54,24.13Z" style="fill:#fff"/><path d="M24.52,26.92A1.44,1.44,0,0,0,25,27a1.33,1.33,0,0,0,1.26-.85l.06-.09v0a1.38,1.38,0,0,0-.85-1.69,1.44,1.44,0,0,0-.46-.08,1.38,1.38,0,0,0-.47,2.67Z" style="fill:#fff"/><path d="M78.64,51.37l-1.79-.59c-1.8-.61-4.22-1.41-6.14-2l.64-.58.09-.12a2.28,2.28,0,0,0,.17-2,3.21,3.21,0,0,0-.43-.76c.06-.14.13-.29.2-.43l.36-.83c.09-.19.17-.39.28-.66a27.42,27.42,0,0,0,.78-18l-.3-.93-.23-.68-.23-.6s-.21-.53-.29-.71L71.52,22l-.23-.5A27.69,27.69,0,0,0,47.24,5.63l-.43,0h-.57a27.79,27.79,0,0,0-19.11,7.62l-.69.68a27.51,27.51,0,0,0-3.07,3.74l-.29.43c-.23.36-.46.72-.68,1.09l-.26.46-.36.64-.4.79c-.11.22-.21.43-.31.65l-.37.83-.27.66a27.33,27.33,0,0,0-.78,18l.15.5.15.45.23.67.23.61.29.71.23.53,0,.06a3.38,3.38,0,0,0-1.08,1.43,2.25,2.25,0,0,0,.16,2l.72.69c-1.9.55-4.28,1.35-6.05,2l-.24.08-1.63.54a1.18,1.18,0,0,0-.88,1,1.11,1.11,0,0,0,.78,1.08c2.06.83,4.08,1.73,6,2.7a35.65,35.65,0,0,0-.87,4.93,1.07,1.07,0,0,0,.72,1.08,1.87,1.87,0,0,0,1.32.07l2.41-.82.13,0a65.73,65.73,0,0,1,8.4-2.51,1.33,1.33,0,0,0,1-.68A1,1,0,0,0,31.62,57l-.53-.48a25.79,25.79,0,0,0,2.85,1.65A27.36,27.36,0,0,0,45.64,61h.14v-.3h0l.15.3h.27a27.68,27.68,0,0,0,13.32-3.42,1,1,0,0,0,.09.57,1.37,1.37,0,0,0,1,.67A66.7,66.7,0,0,1,69,61.36l2.54.86a1.85,1.85,0,0,0,.58.09,1.9,1.9,0,0,0,.75-.16,1.07,1.07,0,0,0,.71-1.08,35.13,35.13,0,0,0-.87-4.93c1.92-1,3.94-1.87,6-2.7a1.11,1.11,0,0,0,.78-1.08A1.18,1.18,0,0,0,78.64,51.37ZM27.92,52.74a1.28,1.28,0,0,1-1.41-.35l-3.86-5.32s-.06-.09,0-.24a1.89,1.89,0,0,1,1.2-.91,70.2,70.2,0,0,1,43.78,0,1.89,1.89,0,0,1,1.2.91c.08.21,0,.21,0,.21L65,52.41a1.31,1.31,0,0,1-1.4.33,61,61,0,0,0-35.64,0Zm41-9-.14,0-1.54-.49-2.69-.77a72.65,72.65,0,0,0-9.9-1.87L58,34.69h9.44l2.89,5A26,26,0,0,1,68.89,43.79ZM51.63,40.32a75.57,75.57,0,0,0-10.85-.08l-4-6.92,4.72-8.18H51l4.72,8.18Zm-13.87.19a73.7,73.7,0,0,0-10.79,2l-2.68.77-.83.26a25,25,0,0,1-1.37-3.84l2.87-5h9.45Zm33.35-5-1.25-2.16,1.24-2.16A24.93,24.93,0,0,1,71.11,35.48ZM68.64,22.32l.24.52s.24.53.3.68l.28-.12h0l-.21.28.16.38.27-.11-.22.24c.07.17.13.33.19.5l.28-.1-.23.24.13.37.19.58.16.52c.06.22.13.44.18.66l-2.88,5H58l-4.72-8.18L58,15.59h5.77A24.74,24.74,0,0,1,68.64,22.32ZM57.29,10.94a26.11,26.11,0,0,1,3.23,1.91H58L56.8,10.71ZM39.66,9.23a25.26,25.26,0,0,1,6.58-.88h.48a24.78,24.78,0,0,1,6.06.88l2.89,5L51,22.4H41.5l-4.72-8.18Zm-4,1.44-1.25,2.18H31.89A24.44,24.44,0,0,1,35.66,10.67ZM22,26.31l.32,0,.14-.48.1-.28.31-.9a24.94,24.94,0,0,1,1-2.37c.07-.15.14-.29.22-.44l-.24-.19h0l.3.07.43-.77.3-.52a24.75,24.75,0,0,1,3.78-4.81h5.77l4.72,8.18L34.41,32H25l-2.88-5c.05-.19.1-.38.16-.57L22,26.31Zm-.6,4.87,1.24,2.14-1.23,2.13A24.36,24.36,0,0,1,21.35,31.18Zm-.1,28.09-.19.06a35,35,0,0,1,.75-3.49,1,1,0,0,0-.61-1.2c-1.41-.72-2.88-1.43-4.39-2.1,1.83-.61,3.83-1.27,5.38-1.7l.09,0,1.62,2.64a4.35,4.35,0,0,0,.73.84l3.27,2.86C25.73,57.73,23.36,58.54,21.25,59.27ZM35.16,55.7A25.9,25.9,0,0,1,32.24,54l.84-.2h1.33l1.23,2.14Zm11,2.59h-.31v.3h0l-.15-.31a24.92,24.92,0,0,1-6.07-.87L37.13,53a58.2,58.2,0,0,1,18.11.13L52.79,57.4A24.92,24.92,0,0,1,46.2,58.29ZM58,53.79h.36l1.57.37A24.46,24.46,0,0,1,56.78,56Zm12.24.85a1,1,0,0,0-.61,1.2c.31,1.17.56,2.35.75,3.49l-.22-.08c-2.1-.72-4.46-1.53-6.63-2.1.89-.81,2.48-2.26,3.18-2.83a3.93,3.93,0,0,0,.83-.88l1.62-2.62.09,0c1.55.44,3.55,1.1,5.38,1.7C73.16,53.21,71.69,53.92,70.28,54.64Z" style="fill:#fff"/></g></g></svg>