<svg xmlns="http://www.w3.org/2000/svg" width="613.95" height="203.93" viewBox="0 0 613.95 203.93"><defs><style>.cls-1{fill:#ed3e85;}.cls-2{fill:#fff;}</style></defs><title>lenovo_h</title><g id="Layer_2" data-name="Layer 2"><g id="Layer_1-2" data-name="Layer 1"><g id="Layer_2-2" data-name="Layer 2"><g id="Capa_1" data-name="Capa 1"><rect class="cls-1" width="613.95" height="203.93"/><path class="cls-2" d="M267.5,68.73a32.91,32.91,0,0,0-25.72,12.54V70.05H220.15v78.47h21.63V103.86c0-8.06,6.28-16.58,17.84-16.58,8.92,0,18.2,6.21,18.2,16.58v44.66h21.63V99.84c0-18-12.93-31.11-31.95-31.11"/><polygon class="cls-2" points="453.2 70.05 433.64 123.52 414.09 70.05 389.34 70.05 421.8 148.52 445.49 148.52 477.92 70.05 453.2 70.05"/><path class="cls-2" d="M155.62,93.69c3.7-4.94,9.55-7.84,16.61-7.84,7.8,0,13.71,4.46,16.76,11l-37.75,15.57c-1.06-8,1-14.26,4.38-18.74m41.52,30.69c-9.07,6.74-14.32,8.34-22.59,8.34-7.51,0-13.31-2.33-17.45-6.38l55.29-22.88A42.54,42.54,0,0,0,203,81.59c-7.27-8.42-18-12.9-31.12-12.9-23.79,0-41.72,17.51-41.72,40.57,0,23.68,18,40.6,44.12,40.6,14.62,0,29.58-6.93,36.61-15Z"/><polygon class="cls-2" points="128.08 128.72 78.92 128.72 78.92 46.54 57 46.54 57 148.56 128.08 148.56 128.08 128.72"/><path class="cls-2" d="M516.72,87.18c-12.1,0-20.83,9.13-20.83,22.09,0,12.4,9.29,22.13,21.15,22.13s20.84-9.39,20.84-22.13c0-12.41-9.27-22.09-21.16-22.09m0,62.68c-23.61,0-42.2-17.58-42.2-40.59,0-22.7,18.67-40.54,42.52-40.54,23.64,0,42.16,17.52,42.16,40.54,0,22.77-18.67,40.59-42.48,40.59"/><path class="cls-2" d="M350.23,87.18c-12.09,0-20.89,9.13-20.89,22.09,0,12.4,9.33,22.13,21.15,22.13,12.1,0,20.89-9.39,20.89-22.13,0-12.41-9.32-22.09-21.15-22.09m0,62.68c-23.68,0-42.21-17.58-42.21-40.59,0-22.7,18.66-40.54,42.47-40.54,23.62,0,42.22,17.52,42.22,40.54,0,22.77-18.68,40.59-42.48,40.59"/><path class="cls-2" d="M570.24,137.2h2.33l3.46,5.4,3.38-5.4h2.27v11.32h-2.12v-8l-3.48,5.41h-.19l-3.57-5.41v8h-2.08Zm-8.08,2h-3.5v-2h9.14v2h-3.48v9.33h-2.16Z"/></g></g></g></g></svg>