<svg xmlns="http://www.w3.org/2000/svg" width="203.93" height="613.95" viewBox="0 0 203.93 613.95"><defs><style>.cls-1{fill:#ed3e85;}.cls-2{fill:#fff;}</style></defs><title>lenovo_v</title><g id="Layer_2" data-name="Layer 2"><g id="Capa_1" data-name="Capa 1"><rect class="cls-1" width="203.93" height="613.95"/><path class="cls-2" d="M68.73,346.45a32.91,32.91,0,0,0,12.54,25.72H70.05v21.63h78.47V372.17H103.86c-8.06,0-16.58-6.28-16.58-17.84,0-8.92,6.21-18.2,16.58-18.2h44.66V314.5H99.84c-18,0-31.11,12.93-31.11,31.95"/><polygon class="cls-2" points="70.05 160.75 123.52 180.31 70.05 199.86 70.05 224.61 148.52 192.15 148.52 168.46 70.05 136.03 70.05 160.75"/><path class="cls-2" d="M93.69,458.33c-4.94-3.7-7.84-9.55-7.84-16.61,0-7.8,4.46-13.71,11-16.76l15.57,37.75c-8,1.06-14.26-1-18.74-4.38m30.69-41.52c6.74,9.07,8.34,14.32,8.34,22.59,0,7.51-2.33,13.31-6.38,17.45l-22.88-55.29A42.56,42.56,0,0,0,81.59,411c-8.42,7.27-12.9,18-12.9,31.12,0,23.79,17.51,41.72,40.57,41.72,23.68,0,40.6-18,40.6-44.12,0-14.62-6.93-29.58-15-36.61Z"/><polygon class="cls-2" points="128.72 485.87 128.72 535.03 46.54 535.03 46.54 556.95 148.56 556.95 148.56 485.87 128.72 485.87"/><path class="cls-2" d="M87.18,97.23c0,12.1,9.13,20.83,22.09,20.83,12.4,0,22.13-9.29,22.13-21.15,0-12-9.39-20.84-22.13-20.84-12.41,0-22.09,9.27-22.09,21.16m62.68,0c0,23.61-17.58,42.2-40.59,42.2-22.7,0-40.54-18.67-40.54-42.52,0-23.64,17.52-42.16,40.54-42.16,22.77,0,40.59,18.67,40.59,42.48"/><path class="cls-2" d="M87.18,263.72c0,12.09,9.13,20.89,22.09,20.89,12.4,0,22.13-9.33,22.13-21.15,0-12.1-9.39-20.89-22.13-20.89-12.41,0-22.09,9.32-22.09,21.15m62.68,0c0,23.68-17.58,42.21-40.59,42.21-22.7,0-40.54-18.66-40.54-42.47,0-23.62,17.52-42.22,40.54-42.22,22.77,0,40.59,18.68,40.59,42.48"/><path class="cls-2" d="M137.2,43.71V41.38l5.4-3.46-5.4-3.38V32.27h11.32v2.12h-8l5.41,3.48v.19l-5.41,3.57h8v2.08Zm2,8.08v3.5h-2V46.15h2v3.48h9.33v2.16Z"/></g></g></svg>