<svg xmlns="http://www.w3.org/2000/svg" width="149.33" height="16" viewBox="0 0 149.33 16"><defs><style>.cls-1{fill:#898a86;}.cls-2{fill:#c2d32f;}</style></defs><title>powered_logo</title><g id="Layer_2" data-name="Layer 2"><g id="Layer_1-2" data-name="Layer 1"><path class="cls-1" d="M0,4.24H1V5.63A3.91,3.91,0,0,1,2.3,4.44,3.44,3.44,0,0,1,4,4,3.73,3.73,0,0,1,6.72,5.2,3.83,3.83,0,0,1,7.86,8a3.88,3.88,0,0,1-1.13,2.83A3.67,3.67,0,0,1,4,12a3.65,3.65,0,0,1-1.66-.37A4.11,4.11,0,0,1,1,10.49v4.06H0ZM3.89,5a2.87,2.87,0,0,0-2.13.88A3,3,0,0,0,.9,8.05,3.1,3.1,0,0,0,1.29,9.6a2.81,2.81,0,0,0,1.1,1.09,3.13,3.13,0,0,0,1.51.4,2.86,2.86,0,0,0,1.47-.41,3,3,0,0,0,1.1-1.13A3.11,3.11,0,0,0,6.88,8,3.07,3.07,0,0,0,6.47,6.5,2.93,2.93,0,0,0,3.89,5Z"/><path class="cls-1" d="M19.34,4.24h1l2.31,5.48,2.41-5.48h.18l2.42,5.48L30,4.24h1l-3.28,7.55h-.18L25.16,6.38l-2.41,5.41h-.19Z"/><path class="cls-1" d="M38.53,9.28l.82.43A4.46,4.46,0,0,1,38.42,11a3.78,3.78,0,0,1-1.19.74,4.12,4.12,0,0,1-1.49.25,3.58,3.58,0,0,1-2.89-1.21,4.11,4.11,0,0,1-.16-5.3,3.6,3.6,0,0,1,3-1.43,3.73,3.73,0,0,1,3.09,1.47,4.13,4.13,0,0,1,.83,2.58H32.8a3.05,3.05,0,0,0,.85,2.16,2.67,2.67,0,0,0,2,.84,3.36,3.36,0,0,0,1.13-.2,2.87,2.87,0,0,0,.92-.54A4.31,4.31,0,0,0,38.53,9.28Zm0-2A3.17,3.17,0,0,0,38,6a2.59,2.59,0,0,0-1-.75A3,3,0,0,0,35.7,5a2.78,2.78,0,0,0-1.92.72,3.21,3.21,0,0,0-.88,1.56Z"/><path class="cls-1" d="M41,4.24h1v1.1a3.34,3.34,0,0,1,.93-1A1.82,1.82,0,0,1,44,4a1.77,1.77,0,0,1,.86.26l-.51.82A1.27,1.27,0,0,0,43.84,5a1.4,1.4,0,0,0-.94.4,2.41,2.41,0,0,0-.68,1.23A12,12,0,0,0,42,9.23v2.56H41Z"/><path class="cls-1" d="M52.05,9.28l.81.43A4.11,4.11,0,0,1,51.93,11a3.73,3.73,0,0,1-1.18.74,4.14,4.14,0,0,1-1.5.25,3.61,3.61,0,0,1-2.89-1.21,4.11,4.11,0,0,1-1-2.74,4,4,0,0,1,.88-2.56A3.63,3.63,0,0,1,49.2,4a3.72,3.72,0,0,1,3.08,1.47,4,4,0,0,1,.83,2.58H46.32a3.09,3.09,0,0,0,.84,2.16,2.68,2.68,0,0,0,2,.84,3.31,3.31,0,0,0,1.12-.2,3,3,0,0,0,.93-.54A4.56,4.56,0,0,0,52.05,9.28Zm0-2A3.17,3.17,0,0,0,51.48,6a2.76,2.76,0,0,0-1-.75A3,3,0,0,0,49.21,5a2.75,2.75,0,0,0-1.91.72,3.21,3.21,0,0,0-.88,1.56Z"/><path class="cls-1" d="M62.46,1.32V11.79h-1v-1.3a4.21,4.21,0,0,1-1.37,1.12,3.72,3.72,0,0,1-1.67.37,3.64,3.64,0,0,1-2.73-1.16A3.89,3.89,0,0,1,54.6,8,3.8,3.8,0,0,1,55.75,5.2,3.73,3.73,0,0,1,58.5,4a3.48,3.48,0,0,1,1.68.4,3.74,3.74,0,0,1,1.33,1.19V1.32ZM58.58,5A2.93,2.93,0,0,0,56,6.5,3.06,3.06,0,0,0,55.59,8,3,3,0,0,0,56,9.55a3,3,0,0,0,1.09,1.13,2.9,2.9,0,0,0,1.48.41,3.14,3.14,0,0,0,1.52-.4A2.85,2.85,0,0,0,61.18,9.6a3.1,3.1,0,0,0,.39-1.55,3,3,0,0,0-.86-2.19A2.87,2.87,0,0,0,58.58,5Z"/><path class="cls-1" d="M69.24,11.79V1.32h1V5.53a4.23,4.23,0,0,1,1.37-1.12A3.77,3.77,0,0,1,73.23,4,3.68,3.68,0,0,1,76,5.21,3.89,3.89,0,0,1,77.1,8,3.83,3.83,0,0,1,76,10.82,3.7,3.7,0,0,1,73.21,12a3.59,3.59,0,0,1-1.68-.39,4,4,0,0,1-1.32-1.19v1.39Zm3.89-.74a3,3,0,0,0,1.49-.4,2.93,2.93,0,0,0,1.09-1.12A3.11,3.11,0,0,0,76.12,8a3.14,3.14,0,0,0-.41-1.54,3,3,0,0,0-1.1-1.13,2.86,2.86,0,0,0-1.47-.41,3,3,0,0,0-1.51.41,2.91,2.91,0,0,0-1.11,1.09A3.2,3.2,0,0,0,70.14,8,3,3,0,0,0,71,10.16,2.88,2.88,0,0,0,73.13,11.05Z"/><path class="cls-1" d="M78.06,4.24h1l2.59,5.81L84.2,4.24h1L80.73,14.55h-1l1.45-3.33Z"/><rect class="cls-2" x="13.21" y="1.22" width="1.45" height="6.58"/><path class="cls-2" d="M16.91,4.22l-.84.84a3.55,3.55,0,1,1-4.25,0L11,4.23a4.72,4.72,0,1,0,5.91,0"/><path class="cls-2" d="M87.67,8a4.52,4.52,0,0,1,1.4-3.42A6.08,6.08,0,0,1,97,4.83,4.58,4.58,0,0,1,98.1,8a4.57,4.57,0,0,1-1.39,3.44,6.16,6.16,0,0,1-7.38.22A4.44,4.44,0,0,1,87.67,8Zm3.49,0a2.71,2.71,0,0,0,.49,1.79,1.61,1.61,0,0,0,2.47,0A2.84,2.84,0,0,0,94.6,8a2.72,2.72,0,0,0-.48-1.76,1.54,1.54,0,0,0-1.21-.57,1.57,1.57,0,0,0-1.26.58A2.73,2.73,0,0,0,91.16,8Z"/><path class="cls-2" d="M99.13,16V3.46h3.26V4.8a4.23,4.23,0,0,1,1.24-1.15,3.54,3.54,0,0,1,1.69-.4,3.25,3.25,0,0,1,2.81,1.4,5.69,5.69,0,0,1,1,3.44A4.94,4.94,0,0,1,108,11.55a3.53,3.53,0,0,1-2.74,1.2,3.85,3.85,0,0,1-1.47-.28,3.37,3.37,0,0,1-1.18-.81V16Zm3.49-8a2.39,2.39,0,0,0,.45,1.6,1.48,1.48,0,0,0,1.15.53,1.28,1.28,0,0,0,1-.5,2.75,2.75,0,0,0,.41-1.7,2.47,2.47,0,0,0-.43-1.62,1.28,1.28,0,0,0-1-.52,1.37,1.37,0,0,0-1.11.52A2.57,2.57,0,0,0,102.62,8Z"/><path class="cls-2" d="M114.33,0V3.46h1.92V6h-1.92V9.22a1.78,1.78,0,0,0,.11.77.64.64,0,0,0,.6.29,3.71,3.71,0,0,0,1.08-.22l.26,2.4a11.29,11.29,0,0,1-2.42.29,4.2,4.2,0,0,1-1.91-.34,2,2,0,0,1-.91-1,5.87,5.87,0,0,1-.3-2.2V6h-1.28V3.46h1.28V1.79Z"/><path class="cls-2" d="M117.37,0h3.48V2.37h-3.48Zm0,3.46h3.48v9.08h-3.48Z"/><path class="cls-2" d="M122.42,3.46h3.25V4.78a4.52,4.52,0,0,1,1.42-1.18,3.91,3.91,0,0,1,1.72-.35,3.31,3.31,0,0,1,1.73.39,2.8,2.8,0,0,1,1,1.14,5.46,5.46,0,0,1,1.5-1.21,3.9,3.9,0,0,1,1.66-.32,3,3,0,0,1,2.28.87,3.82,3.82,0,0,1,.82,2.71v5.71h-3.49V7.37a1.45,1.45,0,0,0-.24-.92,1,1,0,0,0-.86-.47,1.25,1.25,0,0,0-1,.44,2.22,2.22,0,0,0-.38,1.43v4.69h-3.49v-5a3,3,0,0,0-.07-.82,1.12,1.12,0,0,0-.38-.55,1.05,1.05,0,0,0-.65-.21,1.2,1.2,0,0,0-1,.46,2.24,2.24,0,0,0-.39,1.48v4.64h-3.49Z"/><path class="cls-2" d="M149.33,8.86h-7a2.29,2.29,0,0,0,.46,1.25,1.64,1.64,0,0,0,1.31.59,1.89,1.89,0,0,0,1-.26,2.08,2.08,0,0,0,.61-.57l3.43.32a5,5,0,0,1-1.9,2,6.85,6.85,0,0,1-3.19.6,6.5,6.5,0,0,1-2.84-.51,4.16,4.16,0,0,1-1.72-1.62,4.92,4.92,0,0,1-.68-2.6,4.62,4.62,0,0,1,1.36-3.45,5.2,5.2,0,0,1,3.77-1.32,6.75,6.75,0,0,1,3.08.59,3.9,3.9,0,0,1,1.72,1.71,6.19,6.19,0,0,1,.59,2.92Zm-3.54-1.67a2.35,2.35,0,0,0-.54-1.44,1.7,1.7,0,0,0-2.49.22,2.43,2.43,0,0,0-.4,1.22Z"/></g></g></svg>