<svg xmlns="http://www.w3.org/2000/svg" xmlns:xlink="http://www.w3.org/1999/xlink" width="1554" height="631.57" viewBox="0 0 1554 631.57"><defs><style>.cls-1{fill:none;}.cls-2{fill:#fff;}.cls-3{fill:#ee438d;}.cls-4{clip-path:url(#clip-path);}.cls-5{fill:#3a8dde;}</style><clipPath id="clip-path"><rect class="cls-1" x="917.56" y="441.08" width="571.47" height="190.49"/></clipPath></defs><title>super_logo</title><g id="Layer_2" data-name="Layer 2"><g id="Layer_1-2" data-name="Layer 1"><path class="cls-2" d="M254.51,210.54c-18-7.4-30.51-12.93-37.1-17.64-4.42-3.16-4.42-4.42-4.42-6.5,0-6,9.44-14.34,27.15-14.34,21.88,0,37.94,7.32,59.23,27l10.63,9.8,64.26-64.26-10-10.6c-29.66-31.66-69.76-47.71-119.2-47.71-34.39,0-66.33,10.21-89.94,28.77-25.75,20.22-39.93,49.23-39.93,81.67,0,23.62,8.8,43.87,26.16,60.2,16.14,15.18,37.47,25,54.29,31.8,18.7,7.56,29.66,13,35.56,17.56,4.23,3.29,4.23,4.72,4.23,6.54,0,10-14.7,15.16-29.21,15.16-27.35,0-48.92-10.22-69.93-33.14l-9.73-10.62L56.67,343.3l8.83,11.37c30,38.67,77.69,59.1,137.86,59.1,34.09,0,65.85-10.13,89.44-28.53,26.07-20.33,40.43-49.72,40.43-82.74C333.23,249.64,293.41,226.34,254.51,210.54Z"/><path class="cls-2" d="M591.81,90.42,545,264.8c-5.37,20.41-13.47,36.17-24.1,46.84-9.7,9.34-21.67,13.88-36.59,13.88-11.67,0-21-3.1-26.9-8.95-7-6.94-8.5-16.87-8.5-24a91.82,91.82,0,0,1,3.94-27.2l0-.16L497.79,97.69h77.12l95.16-58.37L582.48,0,488,90.42H405l-43,161c-5,17.82-7.56,34.72-7.56,50.25,0,69.4,47.23,112.51,123.25,112.51,46.44,0,82.08-13.06,109-39.93,21.83-21.83,37.7-52.15,48.5-92.66L686.51,90.42Z"/><path class="cls-2" d="M954.23,194.25c0-28.8-9-52.38-26.71-70.11C904.19,100.82,872.89,90.42,826,90.42H722.79L637.05,409.64h94.69l23.55-87.59h43.46c43.3,0,81-11.24,108.91-32.5C938.13,266.37,954.23,233.42,954.23,194.25Zm-160.48-16.4h29.79c18.19,0,24.89,4.25,29.06,8.42,3.39,3.39,5.11,7.88,5.11,13.35,0,8.6-4,36.65-55.66,36.65H778.19Z"/><polygon class="cls-2" points="1043.26 291.89 1177.49 291.89 1201.01 206.11 1066.57 206.11 1074.3 177.02 1227.12 177.02 1250.51 90.42 1003.33 90.42 917.59 409.64 1166.8 409.64 1190.19 323.04 1034.84 323.04 1043.26 291.89"/><path class="cls-2" d="M1524,192.6c0-27.59-9.24-51.4-26.71-68.87-22.42-22.42-55.89-33.31-102.33-33.31H1278.09l-85.74,319.22h94.7l24.79-92.55h26.59l44.62,92.55h106l-52-104.24c22.47-7.57,41.27-18.83,56.05-33.61C1513,251.9,1524,223.78,1524,192.6Zm-174.56-14.75h41.8c20.84,0,28.71,4.75,31.54,7.59,3,3,4.7,6,4.7,12.53a25.59,25.59,0,0,1-7.59,18.73c-9,9-26.39,14.2-47.65,14.2h-37Z"/><path class="cls-3" d="M984.86,231c0-15.33-4.53-27.14-13.57-36.19A53.65,53.65,0,0,0,960,186.22h80v-10H912V177H860.2L822.81,316.22H781.09a104.38,104.38,0,0,0,22.82-64.33c0-39-24.81-69.76-63.91-76.51v-1.16h-9.92c-2.17-.14-4.36-.24-6.6-.24-2.44,0-4.84.09-7.22.24H612v10h65.37a105.81,105.81,0,0,0-55.12,64H487c10.54-22.76,32.46-38.55,55.54-38.55,21.12,0,32.93,9.55,43.23,24.13l31.92-22.37c-11.31-18.55-28.1-31.43-51.69-35.8v-1.41H554.51c-2.35-.15-4.75-.24-7.21-.24s-4.67.09-7,.24H336v10H501.88a108.82,108.82,0,0,0-56.67,64H354v10h88.5a100.18,100.18,0,0,0-2.27,21.07c0,1,0,2,.07,2.93H400v10h41.17a74.46,74.46,0,0,0,7.75,24H224v10H455.35c14.65,18.9,38.85,29.72,67.82,29.72,29.41,0,49.77-11.31,66.6-26.89l-25.13-26.14c-13.07,10.56-24.13,17.34-41.22,17.34-20,0-35.37-10.82-40.82-28H542v-10H480.64c-.13-1.45-.19-2.93-.19-4.44a69.6,69.6,0,0,1,2.8-19.56H619.69a99.14,99.14,0,0,0-2,19.81c0,44.23,31.92,77.91,80.43,77.91,30.11,0,55.57-11.74,74-29.72h48L813,352.93h38.7L866,299.65h33.43C947.41,299.65,984.86,274.76,984.86,231ZM763.69,254.41a68,68,0,0,1-6.3,27.81H658.26a59.92,59.92,0,0,1-.38-6.7c0-30.41,24.13-65.85,61.08-65.85C747.86,209.67,763.69,228.27,763.69,254.41ZM660.38,292.22h91.47c-10.58,16-27.73,28-49.23,28C680.37,320.25,665.87,309.22,660.38,292.22Zm229-80.29h25.13c11.57,0,18.85,2.52,24.13,7.79a20.1,20.1,0,0,1,5.78,14.58c0,19.86-17.34,31.42-43,31.42H875Z"/><path class="cls-3" d="M1119.85,222.22H1246v-10H1118.27l-5.74-36.48h-37.2L1050,212.22h-50v10h43.09l-65.2,94H898v10h73l-18.53,26.71h41.72l18-26.71H1016v-5.65l4.79-7.1h74.4l5.53,39.46h39.7l-9.55-60.71H1182v-10h-52.71Zm-37.09,0,7.9,57.07h-46.74l38-57.07Z"/><rect class="cls-3" y="212.22" width="454" height="10"/><rect class="cls-3" x="1192" y="176.22" width="128" height="10"/><rect class="cls-3" x="1204" y="318.22" width="128" height="10"/><rect class="cls-3" x="1392" y="318.22" width="128" height="10"/><rect class="cls-3" x="236" y="248.22" width="78" height="10"/><rect class="cls-3" x="114" y="282.22" width="219.23" height="10"/><rect class="cls-3" x="1226" y="282.22" width="52" height="10"/><rect class="cls-3" x="1414" y="212.22" width="112" height="10"/><rect class="cls-3" x="1270" y="212.22" width="56" height="10"/><rect class="cls-3" x="1148" y="248.22" width="406" height="10"/><g id="Artwork_8" data-name="Artwork 8"><g class="cls-4"><rect class="cls-5" x="917.56" y="441.08" width="571.47" height="190.49"/><g class="cls-4"><path class="cls-2" d="M1166.52,505.28a30.43,30.43,0,0,0-23.9,11.75v0h0V506.51h-20.13v73.32h20.13V538.11c0-7.51,5.82-15.49,16.6-15.49,8.33,0,16.94,5.79,16.94,15.49v41.72h20.14V534.38c0-16.86-12.07-29.1-29.78-29.1"/><polygon class="cls-2" points="1339.38 506.52 1321.18 556.46 1302.98 506.52 1279.99 506.52 1310.15 579.81 1332.21 579.81 1362.38 506.52 1339.38 506.52"/><path class="cls-2" d="M1101.06,557.29c-8.47,6.27-13.31,7.76-21,7.76-7,0-12.4-2.16-16.24-5.94l51.48-21.35a39.74,39.74,0,0,0-8.8-20.47c-6.76-7.86-16.77-12-29-12-22.14,0-38.83,16.33-38.83,37.9,0,22.13,16.73,37.89,41,37.89,13.63,0,27.56-6.45,34.07-14Zm-38.68-28.69c3.43-4.6,8.9-7.3,15.49-7.3,7.26,0,12.76,4.14,15.6,10.25l-35.17,14.6c-1-7.49,1-13.35,4.08-17.55"/><polygon class="cls-2" points="1036.76 561.34 991 561.34 991 484.59 970.6 484.59 970.6 579.83 1036.76 579.83 1036.76 561.34"/><path class="cls-2" d="M1398.53,581.06c-22,0-39.27-16.4-39.27-37.89,0-21.24,17.37-37.89,39.54-37.89,22,0,39.26,16.4,39.26,37.89,0,21.25-17.36,37.89-39.53,37.89m0-58.53c-11.25,0-19.41,8.52-19.41,20.64,0,11.57,8.65,20.64,19.68,20.64,11.24,0,19.4-8.75,19.4-20.64,0-11.57-8.64-20.64-19.67-20.64"/><path class="cls-2" d="M1243.53,581.06c-22,0-39.27-16.4-39.27-37.89,0-21.24,17.37-37.89,39.54-37.89s39.26,16.4,39.26,37.89c0,21.25-17.36,37.89-39.53,37.89m0-58.53c-11.25,0-19.4,8.52-19.4,20.64,0,11.57,8.64,20.64,19.67,20.64,11.24,0,19.41-8.75,19.41-20.64,0-11.57-8.65-20.64-19.68-20.64"/><path class="cls-2" d="M1440.82,571.12h-3.26v-1.85h8.53v1.85h-3.25v8.71h-2Zm7.53-1.85h2.16l3.19,5,3.19-5H1459v10.56h-2v-7.51l-3.25,5.08h-.21l-3.25-5.08v7.51h-2Z"/></g></g></g></g></g></svg>