<svg xmlns="http://www.w3.org/2000/svg" width="307.93" height="383.84" viewBox="0 0 307.93 383.84"><defs><style>.cls-1{fill:#fff;}</style></defs><title>travel</title><g id="Layer_2" data-name="Layer 2"><g id="Layer_1-2" data-name="Layer 1"><path class="cls-1" d="M38.85,209.3V210c-1,6.75-2,13.5-2,20.25a117.12,117.12,0,0,0,34.44,83,115.58,115.58,0,0,0,51.65,30.05l.34.33h.33A113.38,113.38,0,0,0,154,347.72a117.5,117.5,0,0,0,19.91-233.28L177.93,129a103.72,103.72,0,0,1,79.68,93.51c-8.44,1-16.21,8.1-25.66,16.54-13.51,12.16-31.06,27.68-55,26.67A41.05,41.05,0,0,1,164.43,264c2.7-2.36,7.77-5.06,15.53-8.44a29.56,29.56,0,0,0,10.8-7.76c6.42-7.09,7.43-15.87,5.07-25-2-8.1-6.76-16.21-12.49-23.63-9.46-12.83-22.29-24-29-28.36a.33.33,0,0,1-.33-.34l-2.37-1.35c-6.07-3.71-12.49-7.43-16.2-11.81-4.39-5.07-5.07-11.82,3.71-22.28L135.4,128h0L153.63,162a6.65,6.65,0,0,0,6.07,4.05h19.92a2.58,2.58,0,0,0,1.69-.33,6.76,6.76,0,0,0,4.73-8.44L170.51,103l31.06-1,9.11,16.88a7,7,0,0,0,6.08,3.71h14.85a5.83,5.83,0,0,0,2.36-.33,6.75,6.75,0,0,0,4.73-8.44l-7.76-27.35h0v-.34l-1.35-3.71,1-3.37c0-.34,0-.34.34-.68l7.76-27a4.23,4.23,0,0,0,.34-2,6.77,6.77,0,0,0-6.75-6.75H216.76a7.11,7.11,0,0,0-6.08,3.71l-9.11,17.22-31.06-.34L186.37,8.44h0a14.47,14.47,0,0,1,.34-1.69A6.77,6.77,0,0,0,180,0H160A7.11,7.11,0,0,0,154,3.71L122.91,62.12l-30.72-1h-.34a20.34,20.34,0,0,0-15.19,6.42,21.48,21.48,0,0,0-6.42,15.19h0v.34h0v.67a24.74,24.74,0,0,0,6.42,15.19,21.48,21.48,0,0,0,15.19,6.42h.67l30.73-1,6.07,11.15a116.17,116.17,0,0,0-57.39,31.73A114.21,114.21,0,0,0,38.85,209.3ZM91.51,91.82h0a9.68,9.68,0,0,1-6.07-2.36,8.45,8.45,0,0,1-2.71-6.08h0v-.67h0a8.47,8.47,0,0,1,2.71-6.08,6.93,6.93,0,0,1,5.73-2.36h.34l34.77,1a6.38,6.38,0,0,0,6.08-3.71l31.4-58.4h7.09L155.32,67.52A6.75,6.75,0,0,0,160,76a4.39,4.39,0,0,0,2,.33l43.21,1.36a6.4,6.4,0,0,0,6.08-3.72l9.11-16.88h2.36l-5.06,18.23-1.69,5.4a9.57,9.57,0,0,0,0,4.39h0l2,5.4,5.4,18.57h-2.36L212,91.82A6.17,6.17,0,0,0,206,88.45h0L162.07,89.8a6.3,6.3,0,0,0-6.42,6.75,3,3,0,0,0,.34,1.69h0l15.53,54.35h-7.76l-31.4-58.4a6.16,6.16,0,0,0-6.08-3.38h0ZM50.33,230.23c0-3.37.33-6.41.33-9.79,10.13,6.08,10.81,10.47,11.48,16.55,1.35,11.14,3,25.65,34.1,51.65,8.1,6.75,15.19,13.5,19.24,21.27a30.83,30.83,0,0,1,4,18.56,101,101,0,0,1-38.82-24.3A105,105,0,0,1,50.33,230.23Zm76.29-99.92c-11.81,15.87-9.11,27.34-1,36.46,5.4,6.07,12.49,10.46,19.58,14.51l2.36,1.36h.34c5.74,3.71,16.88,13.5,25.32,24.64,4.72,6.41,8.44,12.83,10.13,18.9,1.35,5.07,1,9.46-2,12.49-1.35,1.69-3.38,3-6.41,4.39-12.16,5.4-18.91,10.13-22.28,13.84-2.71,3.38-3.72,7.09-2.71,10.13a11.66,11.66,0,0,0,6.42,7.43c4.73,2.36,12.15,3.71,20.59,4.05,29.37,1,49-16.54,64.48-30,6.75-6.07,12.49-11.14,16.88-12.49a103.47,103.47,0,0,1-103.64,97.57,91.93,91.93,0,0,1-21.6-2.37A47.75,47.75,0,0,0,128,302.48c-5.4-9.45-13.5-17.56-22.62-25C78.68,255.22,77,243.4,76,234.62c-1.35-10.46-2.36-18.23-22.28-29a100.92,100.92,0,0,1,72.92-75.28Z"/><path class="cls-1" d="M306.22,204.24v-1l-.34-1-.34-1-.33-1-.34-1-.34-1-.34-1-.34-1-.33-1-.34-1-.34-1-.34-1v-.68a6.63,6.63,0,0,0-12.82,3.38v.34l.33,1,.34,1,.34,1,.34,1,.33,1,.34,1,.34,1,.34,1,.33,1V209a6.69,6.69,0,1,0,13.17-2.37v-.67Z"/><path class="cls-1" d="M288,292.35a6.77,6.77,0,0,0-9.12,3l-.33.67-.34.68-.34.67-.34.68-.33.68-.34.67-.34.68-.34.67-.34.68-.33.67-1.35,1.35-.34.68-.34.67-.34.68-.33.67h0a6.83,6.83,0,0,0,11.47,7.43h0l.34-.68.34-.67.34-.68.33-.67.34-.68.34-.67.34-.68.34-.67.33-.68.34-.67.34-.68.34-.67.33-.68.34-.67.34-.68h0C292.38,298.09,291.36,294,288,292.35Z"/><path class="cls-1" d="M293.73,247.45v12.16l-.34.67V261a6.76,6.76,0,1,0,13.17,3v-.67l.33-1,.34-1,.34-1,.34-1V249.14h0a6.79,6.79,0,0,0-13.51-1.35h0Z"/><path class="cls-1" d="M139.79,383.84H154a6.76,6.76,0,0,0,0-13.51H139.11a6.79,6.79,0,0,0-1.35,13.51Z"/><path class="cls-1" d="M37.5,129.3l-.34.33-.67.68-.68.67-.34,1-.67.67-.68.68-.67.67-.34.68-.68.67-.67.68-.68.67-.67.68-.68.67-.67.68-.68.67.34,1a6.79,6.79,0,0,0,11.14,7.76l.34-.34.34-.67.33-.68.34-.67.68-.68.67-.67.68-.68.67-.67.68-.68.67-.67.68-.68.67-.67.68-.68.67-.67.68-.68.34-.34a6.85,6.85,0,0,0-.68-9.45C44.25,126.26,39.86,126.6,37.5,129.3Z"/><path class="cls-1" d="M195.15,378.77h0l1-.33,1-.34,1-.34,1-.34,1-.33,1-.34,1-.34,1-.34,1-.33,1-.34,1-.34,1-.34,1-.34,1-.33h.34a6.84,6.84,0,1,0-4.73-12.83h-.34l-.67.34-.68.33-.67.34-.68.34-.67.34-.68.33-.67.34-.68.34-.67.34-1,.33-1,.34-1,.34-1,.34-1,.34h0a6.54,6.54,0,0,0-4.72,8.1C187.72,377.76,191.44,379.79,195.15,378.77Z"/><path class="cls-1" d="M86.11,368.65l.68.33.67.34.68.34.67.34.68.33,1,.34,1,.34,1,.34,1,.33,1,.34,1,.34,1,.34,1,.33,1,.34.68.34a6.74,6.74,0,0,0,5.06-12.49l-.34-.34-.67-.34-.68-.33-.67-.34-.68-.34-.67-.34-.68-.33-.67-.34-.68-.34-.67-.34-.68-.33-.67-.34-.68-.34-.67-.34-.68-.33-.34-.34A6.79,6.79,0,0,0,88.14,368Z"/><path class="cls-1" d="M245.45,354.47l.68-.34.67-.68.68-.67.67-.68.68-.67.67-.68.68-.67.67-.68.68-.67.67-.68.68-.67.67-.68.68-.67.67-.68.68-.67.34-.34a6.7,6.7,0,0,0-8.78-10.13h0l-.68.68-.67.67-.68.68-.67.67-.68.68-.67.67-.68.68-.67.67-.34,1-.67.67-.68.68-.67.67-.68.68L238,344l-.68.34a6.6,6.6,0,0,0-1.35,9.45A7.58,7.58,0,0,0,245.45,354.47Z"/><path class="cls-1" d="M287.65,152.93l-.34-.68-.33-.67-.34-.68-.34-.67-.34-.68-.34-.67-.33-.68-.34-.67-.68-.68-.67-.67-.68-.68-.67-.67-.68-.68-.67-.68-.34-.67a6.79,6.79,0,1,0-11.14,7.76l.34.34.34.68.33.67.34.68.34.67.34.68.33.67.34.68.34.67.34.68.33.67.34.68h1.69l.34.67.33.68V160a6.42,6.42,0,0,0,9.12,2.36c3.71-1.69,4.73-5.74,2.7-9.45Z"/><path class="cls-1" d="M17.58,173.52a6.52,6.52,0,0,0-8.44,4l-.34.68-.33,1-.34,1-.34,1V182l-.34,1-.34,1-.33,1-.34.34-.34,1-.34,1-.33,1-.34,1v1.35h0a6.51,6.51,0,0,0,4.73,8.1,6.51,6.51,0,0,0,8.1-4.73h0l.34-.67.33-.68.34-.67.34-.68.34-.67.33-.68.34-.67.34-.68L21,188l.33-.68.34-.67L22,186l.34-.67.33-.68L22,182A6.84,6.84,0,0,0,17.58,173.52Z"/><path class="cls-1" d="M27,290.66,26.7,290l-.34-.68-.34-.67-.34-.68L25,286.61l-.34-.67-.34-.68-.34-.67-.33-.68-.34-.67h0a6.85,6.85,0,0,0-8.78-3.72,6.86,6.86,0,0,0-3.71,8.78h0l.34,1,.33,1,.34,1,.34,1,.34,1,.33,1,.34,1,.34,1,.34,1,.33,1,.34,1,.34,1,.34,1,.33,1,.34.67a6.8,6.8,0,0,0,12.16-6.07l-.34-.34-.34-.68-.34-.67-.33-.68Z"/><path class="cls-1" d="M0,232.6v14.51a6.78,6.78,0,1,0,13.5-1.35V231.25a6.3,6.3,0,0,0-6.75-6.42C2.73,225.85-.31,228.88,0,232.6Z"/><path class="cls-1" d="M41.55,335.56l.67.68.68.67.67.68.68.67.67.68.68.67.68.68L47,341l.68.68.67.67L49,343l.67.67.68.68L51,345c2.7,2.37,7.09,2.37,9.45-.33s2.37-7.09-.33-9.46l-.68-.67-.67-.68-.68-.67-.67-.68-.68-.67-.67-.68-.34-.67-.68-.68-.67-.67-.68-.68L53,327.8l-.68-.68-.67-.67-.68-.68-.67-.67h0a6.69,6.69,0,1,0-9.79,9.11h0Z"/></g></g></svg>