<svg xmlns="http://www.w3.org/2000/svg" width="22" height="20" viewBox="0 0 22 20">
  <defs>
    <style>
      .cls-1 {
        fill: #3a8dde;
        fill-rule: evenodd;
      }
    </style>
  </defs>
  <path id="donwloadn.svg" class="cls-1" d="M22.128,10.506a0.864,0.864,0,0,0-.872.854v5.483a2.479,2.479,0,0,1-2.5,2.45H5.247a2.479,2.479,0,0,1-2.5-2.45V11.27A0.872,0.872,0,0,0,1,11.27v5.572A4.208,4.208,0,0,0,5.247,21H18.754A4.208,4.208,0,0,0,23,16.842V11.36A0.864,0.864,0,0,0,22.128,10.506ZM11.385,16.141h0a0.887,0.887,0,0,0,.614.252,0.867,0.867,0,0,0,.614-0.252l3.913-3.831a0.843,0.843,0,0,0,0-1.208,0.883,0.883,0,0,0-1.234,0l-2.421,2.375V1.854a0.872,0.872,0,0,0-1.744,0V13.477L8.7,11.1a0.887,0.887,0,0,0-1.234,0,0.843,0.843,0,0,0,0,1.208Z" transform="translate(-1 -1)"/>
</svg>
